<?xml version="1.0" standalone="no"?>
<!DOCTYPE svg PUBLIC "-//W3C//DTD SVG 20010904//EN"
 "http://www.w3.org/TR/2001/REC-SVG-20010904/DTD/svg10.dtd">
<svg version="1.0" xmlns="http://www.w3.org/2000/svg"
 width="64.000000pt" height="64.000000pt" viewBox="0 0 64.000000 64.000000"
 preserveAspectRatio="xMidYMid meet">

<g transform="translate(0.000000,64.000000) scale(0.100000,-0.100000)"
fill="#000000" stroke="none">
<path d="M163 393 c-26 -10 -13 -33 17 -33 l30 0 0 -130 c0 -123 1 -130 20
-130 19 0 20 7 20 130 l0 130 65 0 65 0 0 -108 c0 -123 11 -152 61 -152 22 0
29 5 29 20 0 13 -7 20 -20 20 -19 0 -20 7 -20 110 l0 110 25 0 c18 0 25 5 25
20 0 19 -6 20 -152 19 -84 0 -159 -3 -165 -6z"/>
<path d="M260 310 c0 -5 9 -10 20 -10 16 0 19 -8 22 -62 2 -38 8 -63 16 -66 9
-3 12 13 12 58 0 53 3 63 20 67 39 10 19 23 -35 23 -30 0 -55 -4 -55 -10z"/>
</g>
</svg>
